<svg t="1627043812273" class="icon" viewBox="0 0 1024 1024" version="1.1" xmlns="http://www.w3.org/2000/svg" p-id="2196" width="150" height="150"><path d="M576 170.666667a64 64 0 0 1 60.373333 42.666666H725.333333a42.666667 42.666667 0 0 1 42.666667 42.666667v213.333333h-42.666667V256h-119.168l-10.026666-28.458667a21.333333 21.333333 0 0 0-16.298667-13.866666L576 213.333333h-213.333333a21.333333 21.333333 0 0 0-18.56 10.794667l-1.578667 3.413333L332.501333 256H213.333333v554.666667h256v42.666666H213.333333a42.666667 42.666667 0 0 1-42.666666-42.666666V256a42.666667 42.666667 0 0 1 42.666666-42.666667h88.96A64 64 0 0 1 362.666667 170.666667h213.333333z m164.949333 349.568l93.525334 93.525333a8.533333 8.533333 0 0 1 0 12.074667l-173.354667 173.354666a8.533333 8.533333 0 0 1-3.84 2.218667l-126.933333 33.408a8.533333 8.533333 0 0 1-10.453334-10.410667l33.408-126.933333a8.533333 8.533333 0 0 1 2.218667-3.84l173.354667-173.397333a8.533333 8.533333 0 0 1 12.074666 0z m-66.346666 114.645333l-82.346667 82.346667-16.128 61.397333 61.44-16.213333 82.261333-82.261334-45.226666-45.226666z m60.330666-60.330667l-30.165333 30.165334 45.226667 45.226666 30.165333-30.122666-45.226667-45.269334zM469.333333 597.333333v42.666667H341.333333a21.333333 21.333333 0 0 1-3.84-42.325333L341.333333 597.333333h128z m128-192a21.333333 21.333333 0 0 1 3.84 42.325334L597.333333 448H341.333333a21.333333 21.333333 0 0 1-3.84-42.325333L341.333333 405.333333h256z" fill="#d4237a" p-id="2197"></path></svg>